<svg width="256" height="256" viewBox="0 0 256 256" fill="none" xmlns="http://www.w3.org/2000/svg">
<path d="M127.181 12.8755C164.019 68.7091 162.611 117.554 127.257 146.405C126.336 147.148 125.209 147.173 124.288 146.405C92.5949 120.191 86.579 70.0915 124.339 12.8755C124.8 12.1587 126.72 12.1587 127.181 12.8755Z" fill="#6A28BE"/>
<path d="M98.5084 96.1531C98.1756 92.3643 98.1244 88.4731 98.278 84.4795C98.7388 71.6539 102.041 58.1371 106.777 46.2331C112.768 31.1803 120.576 18.6363 124.467 12.6715C125.26 11.4427 126.233 11.4171 127.052 12.6715C130.022 17.2027 139.417 32.0763 145.484 47.2571C149.785 58.0091 153.113 70.1947 154.06 82.0987C154.444 86.8603 154.444 91.5195 154.035 96.1275C150.016 95.1035 128.102 80.6907 125.747 58.9563C122.931 80.7931 102.297 96.2555 98.5084 96.1531Z" fill="#9550E1"/>
<path d="M225.587 137.445L125.747 223.743L25.9326 137.445C25.9326 137.445 25.9326 154.188 25.9326 159.897C25.9326 160.409 26.0606 161.407 26.9054 162.149C35.6606 169.676 101.376 226.252 124.288 245.989C124.8 246.425 125.286 246.655 125.747 246.655C126.233 246.629 126.72 246.425 127.206 245.989C150.118 226.226 215.833 169.676 224.589 162.149C225.433 161.433 225.561 160.409 225.561 159.897C225.561 154.188 225.587 137.445 225.587 137.445Z" fill="#6A28BE"/>
<path d="M225.587 123.673C225.587 122.905 224.845 122.086 223.897 122.905C201.293 142.54 136.985 198.399 127.001 206.668C126.515 207.078 126.131 207.283 125.747 207.283C125.363 207.283 124.979 207.078 124.493 206.668C114.509 198.425 50.2014 142.54 27.6222 122.905C26.675 122.086 25.9326 122.905 25.9326 123.673C25.9326 129.075 25.9326 145.305 25.9326 145.305L125.747 231.244L225.561 145.305C225.587 145.305 225.587 129.075 225.587 123.673Z" fill="#9550E1"/>
<path d="M27.6734 52.5556C35.0462 57.266 63.8718 76.594 77.0302 99.5572C87.1166 117.17 89.395 135.832 89.395 135.832L25.9326 96.1524C25.9326 96.1524 25.9326 64.05 25.9326 53.3748C25.9326 52.8884 26.5726 51.8388 27.6734 52.5556Z" fill="#9550E1"/>
<path d="M107.059 169.906C83.6862 149.247 74.8542 140.057 56.2942 128.767C47.6414 123.493 31.0526 113.202 26.9054 110.617C26.291 110.233 25.9326 109.567 25.9326 108.364C25.9326 105.292 25.9326 96.127 25.9326 96.127C25.9326 96.127 66.483 113.945 89.395 135.807C115.661 160.844 118.681 171.34 115.251 173.362C112.384 175.052 110.029 172.543 107.059 169.906Z" fill="#6A28BE"/>
<path d="M223.82 52.8129C216.447 57.5233 187.622 76.8513 174.463 99.8145C164.377 117.427 162.099 136.09 162.099 136.09L225.561 96.4097C225.561 96.4097 225.561 64.3073 225.561 53.6321C225.587 53.1201 224.947 52.0961 223.82 52.8129Z" fill="#9550E1"/>
<path d="M144.46 170.139C167.833 149.505 176.665 140.289 195.225 128.999C203.878 123.726 220.467 113.435 224.614 110.849C225.228 110.465 225.587 109.799 225.587 108.596C225.587 105.524 225.587 96.3594 225.587 96.3594C225.587 96.3594 185.036 114.177 162.124 136.039C135.859 161.076 132.838 171.572 136.268 173.595C139.11 175.31 141.491 172.775 144.46 170.139Z" fill="#6A28BE"/>
</svg>
